%TF.GenerationSoftware,KiCad,Pcbnew,(5.1.10)-1*%
%TF.CreationDate,2021-10-25T01:06:34+02:00*%
%TF.ProjectId,c1101 shield,63313130-3120-4736-9869-656c642e6b69,rev?*%
%TF.SameCoordinates,Original*%
%TF.FileFunction,Copper,L1,Top*%
%TF.FilePolarity,Positive*%
%FSLAX46Y46*%
G04 Gerber Fmt 4.6, Leading zero omitted, Abs format (unit mm)*
G04 Created by KiCad (PCBNEW (5.1.10)-1) date 2021-10-25 01:06:34*
%MOMM*%
%LPD*%
G01*
G04 APERTURE LIST*
%TA.AperFunction,ComponentPad*%
%ADD10R,1.700000X1.700000*%
%TD*%
%TA.AperFunction,ComponentPad*%
%ADD11O,1.700000X1.700000*%
%TD*%
%TA.AperFunction,Conductor*%
%ADD12C,0.250000*%
%TD*%
G04 APERTURE END LIST*
D10*
%TO.P,J3,1*%
%TO.N,Net-(J3-Pad1)*%
X39296000Y-195218000D03*
D11*
%TO.P,J3,2*%
%TO.N,Net-(J3-Pad2)*%
X36756000Y-195218000D03*
%TO.P,J3,3*%
%TO.N,Net-(J1-Pad8)*%
X34216000Y-195218000D03*
%TO.P,J3,4*%
%TO.N,Net-(J1-Pad6)*%
X31676000Y-195218000D03*
%TO.P,J3,5*%
%TO.N,Net-(J3-Pad5)*%
X29136000Y-195218000D03*
%TO.P,J3,6*%
%TO.N,Net-(J3-Pad6)*%
X26596000Y-195218000D03*
%TO.P,J3,7*%
%TO.N,GND*%
X24056000Y-195218000D03*
%TO.P,J3,8*%
%TO.N,Net-(J3-Pad8)*%
X21516000Y-195218000D03*
%TD*%
D10*
%TO.P,J2,1*%
%TO.N,Net-(J2-Pad1)*%
X39296000Y-172358000D03*
D11*
%TO.P,J2,2*%
%TO.N,Net-(J2-Pad2)*%
X36756000Y-172358000D03*
%TO.P,J2,3*%
%TO.N,Net-(J2-Pad3)*%
X34216000Y-172358000D03*
%TO.P,J2,4*%
%TO.N,Net-(J1-Pad4)*%
X31676000Y-172358000D03*
%TO.P,J2,5*%
%TO.N,Net-(J1-Pad5)*%
X29136000Y-172358000D03*
%TO.P,J2,6*%
%TO.N,Net-(J1-Pad3)*%
X26596000Y-172358000D03*
%TO.P,J2,7*%
%TO.N,Net-(J1-Pad7)*%
X24056000Y-172358000D03*
%TO.P,J2,8*%
%TO.N,+3V3*%
X21516000Y-172358000D03*
%TD*%
%TO.P,J1,10*%
%TO.N,Net-(J1-Pad10)*%
X18214000Y-188868000D03*
%TO.P,J1,9*%
%TO.N,GND*%
X15674000Y-188868000D03*
%TO.P,J1,8*%
%TO.N,Net-(J1-Pad8)*%
X18214000Y-186328000D03*
%TO.P,J1,7*%
%TO.N,Net-(J1-Pad7)*%
X15674000Y-186328000D03*
%TO.P,J1,6*%
%TO.N,Net-(J1-Pad6)*%
X18214000Y-183788000D03*
%TO.P,J1,5*%
%TO.N,Net-(J1-Pad5)*%
X15674000Y-183788000D03*
%TO.P,J1,4*%
%TO.N,Net-(J1-Pad4)*%
X18214000Y-181248000D03*
%TO.P,J1,3*%
%TO.N,Net-(J1-Pad3)*%
X15674000Y-181248000D03*
%TO.P,J1,2*%
%TO.N,Net-(J1-Pad2)*%
X18214000Y-178708000D03*
D10*
%TO.P,J1,1*%
%TO.N,+3V3*%
X15674000Y-178708000D03*
%TD*%
D12*
%TO.N,Net-(J1-Pad8)*%
X18214000Y-186328000D02*
X28594000Y-186328000D01*
X33040999Y-196393001D02*
X34216000Y-195218000D01*
X31111999Y-196393001D02*
X33040999Y-196393001D01*
X30311001Y-195592003D02*
X31111999Y-196393001D01*
X30311001Y-188045001D02*
X30311001Y-195592003D01*
X28594000Y-186328000D02*
X30311001Y-188045001D01*
%TO.N,Net-(J1-Pad7)*%
X15674000Y-186328000D02*
X13612000Y-186328000D01*
X13612000Y-186328000D02*
X13660000Y-186280000D01*
X13660000Y-178436998D02*
X18563997Y-173533001D01*
X13660000Y-186280000D02*
X13660000Y-178436998D01*
X22880999Y-171182999D02*
X24056000Y-172358000D01*
X20951999Y-171182999D02*
X22880999Y-171182999D01*
X18601997Y-173533001D02*
X20951999Y-171182999D01*
X18563997Y-173533001D02*
X18601997Y-173533001D01*
%TO.N,Net-(J1-Pad6)*%
X18214000Y-183788000D02*
X28594000Y-183788000D01*
X31676000Y-186870000D02*
X31676000Y-195218000D01*
X28594000Y-183788000D02*
X31676000Y-186870000D01*
%TO.N,Net-(J1-Pad5)*%
X16849001Y-180873997D02*
X17792998Y-179930000D01*
X16849001Y-182612999D02*
X16849001Y-180873997D01*
X15674000Y-183788000D02*
X16849001Y-182612999D01*
X17792998Y-179930000D02*
X27270000Y-179930000D01*
X29136000Y-178064000D02*
X29136000Y-172358000D01*
X27270000Y-179930000D02*
X29136000Y-178064000D01*
%TO.N,Net-(J1-Pad4)*%
X18214000Y-181248000D02*
X28102000Y-181248000D01*
X31676000Y-177674000D02*
X31676000Y-172358000D01*
X28102000Y-181248000D02*
X31676000Y-177674000D01*
%TO.N,Net-(J1-Pad3)*%
X17038999Y-180047589D02*
X17038999Y-178143999D01*
X17038999Y-178143999D02*
X18222998Y-176960000D01*
X16398992Y-180687596D02*
X17038999Y-180047589D01*
X16398991Y-181081009D02*
X16398992Y-180687596D01*
X16232000Y-181248000D02*
X16398991Y-181081009D01*
X15674000Y-181248000D02*
X16232000Y-181248000D01*
X18222998Y-176960000D02*
X25790000Y-176960000D01*
X26596000Y-176154000D02*
X26596000Y-172358000D01*
X25790000Y-176960000D02*
X26596000Y-176154000D01*
%TO.N,+3V3*%
X15674000Y-178200000D02*
X21516000Y-172358000D01*
X15674000Y-178708000D02*
X15674000Y-178200000D01*
%TD*%
M02*
