M48
; DRILL file {KiCad (5.1.10)-1} date 10/25/21 01:06:37
; FORMAT={-:-/ absolute / inch / decimal}
; #@! TF.CreationDate,2021-10-25T01:06:37+02:00
; #@! TF.GenerationSoftware,Kicad,Pcbnew,(5.1.10)-1
; #@! TF.FileFunction,Plated,1,2,PTH
FMAT,2
INCH
T1C0.0394
%
G90
G05
T1
X0.6171Y-7.0357
X0.6171Y-7.1357
X0.6171Y-7.2357
X0.6171Y-7.3357
X0.6171Y-7.4357
X0.7171Y-7.0357
X0.7171Y-7.1357
X0.7171Y-7.2357
X0.7171Y-7.3357
X0.7171Y-7.4357
X0.8471Y-6.7857
X0.8471Y-7.6857
X0.9471Y-6.7857
X0.9471Y-7.6857
X1.0471Y-6.7857
X1.0471Y-7.6857
X1.1471Y-6.7857
X1.1471Y-7.6857
X1.2471Y-6.7857
X1.2471Y-7.6857
X1.3471Y-6.7857
X1.3471Y-7.6857
X1.4471Y-6.7857
X1.4471Y-7.6857
X1.5471Y-6.7857
X1.5471Y-7.6857
T0
M30
