%TF.GenerationSoftware,KiCad,Pcbnew,(5.1.10)-1*%
%TF.CreationDate,2021-10-25T01:06:34+02:00*%
%TF.ProjectId,c1101 shield,63313130-3120-4736-9869-656c642e6b69,rev?*%
%TF.SameCoordinates,Original*%
%TF.FileFunction,Copper,L2,Bot*%
%TF.FilePolarity,Positive*%
%FSLAX46Y46*%
G04 Gerber Fmt 4.6, Leading zero omitted, Abs format (unit mm)*
G04 Created by KiCad (PCBNEW (5.1.10)-1) date 2021-10-25 01:06:34*
%MOMM*%
%LPD*%
G01*
G04 APERTURE LIST*
%TA.AperFunction,ComponentPad*%
%ADD10R,1.700000X1.700000*%
%TD*%
%TA.AperFunction,ComponentPad*%
%ADD11O,1.700000X1.700000*%
%TD*%
%TA.AperFunction,Conductor*%
%ADD12C,0.254000*%
%TD*%
%TA.AperFunction,Conductor*%
%ADD13C,0.100000*%
%TD*%
G04 APERTURE END LIST*
D10*
%TO.P,J3,1*%
%TO.N,Net-(J3-Pad1)*%
X39296000Y-195218000D03*
D11*
%TO.P,J3,2*%
%TO.N,Net-(J3-Pad2)*%
X36756000Y-195218000D03*
%TO.P,J3,3*%
%TO.N,Net-(J1-Pad8)*%
X34216000Y-195218000D03*
%TO.P,J3,4*%
%TO.N,Net-(J1-Pad6)*%
X31676000Y-195218000D03*
%TO.P,J3,5*%
%TO.N,Net-(J3-Pad5)*%
X29136000Y-195218000D03*
%TO.P,J3,6*%
%TO.N,Net-(J3-Pad6)*%
X26596000Y-195218000D03*
%TO.P,J3,7*%
%TO.N,GND*%
X24056000Y-195218000D03*
%TO.P,J3,8*%
%TO.N,Net-(J3-Pad8)*%
X21516000Y-195218000D03*
%TD*%
D10*
%TO.P,J2,1*%
%TO.N,Net-(J2-Pad1)*%
X39296000Y-172358000D03*
D11*
%TO.P,J2,2*%
%TO.N,Net-(J2-Pad2)*%
X36756000Y-172358000D03*
%TO.P,J2,3*%
%TO.N,Net-(J2-Pad3)*%
X34216000Y-172358000D03*
%TO.P,J2,4*%
%TO.N,Net-(J1-Pad4)*%
X31676000Y-172358000D03*
%TO.P,J2,5*%
%TO.N,Net-(J1-Pad5)*%
X29136000Y-172358000D03*
%TO.P,J2,6*%
%TO.N,Net-(J1-Pad3)*%
X26596000Y-172358000D03*
%TO.P,J2,7*%
%TO.N,Net-(J1-Pad7)*%
X24056000Y-172358000D03*
%TO.P,J2,8*%
%TO.N,+3V3*%
X21516000Y-172358000D03*
%TD*%
%TO.P,J1,10*%
%TO.N,Net-(J1-Pad10)*%
X18214000Y-188868000D03*
%TO.P,J1,9*%
%TO.N,GND*%
X15674000Y-188868000D03*
%TO.P,J1,8*%
%TO.N,Net-(J1-Pad8)*%
X18214000Y-186328000D03*
%TO.P,J1,7*%
%TO.N,Net-(J1-Pad7)*%
X15674000Y-186328000D03*
%TO.P,J1,6*%
%TO.N,Net-(J1-Pad6)*%
X18214000Y-183788000D03*
%TO.P,J1,5*%
%TO.N,Net-(J1-Pad5)*%
X15674000Y-183788000D03*
%TO.P,J1,4*%
%TO.N,Net-(J1-Pad4)*%
X18214000Y-181248000D03*
%TO.P,J1,3*%
%TO.N,Net-(J1-Pad3)*%
X15674000Y-181248000D03*
%TO.P,J1,2*%
%TO.N,Net-(J1-Pad2)*%
X18214000Y-178708000D03*
D10*
%TO.P,J1,1*%
%TO.N,+3V3*%
X15674000Y-178708000D03*
%TD*%
D12*
%TO.N,GND*%
X20362525Y-171411368D02*
X20200010Y-171654589D01*
X20088068Y-171924842D01*
X20031000Y-172211740D01*
X20031000Y-172504260D01*
X20088068Y-172791158D01*
X20200010Y-173061411D01*
X20362525Y-173304632D01*
X20569368Y-173511475D01*
X20812589Y-173673990D01*
X21082842Y-173785932D01*
X21369740Y-173843000D01*
X21662260Y-173843000D01*
X21949158Y-173785932D01*
X22219411Y-173673990D01*
X22462632Y-173511475D01*
X22669475Y-173304632D01*
X22786000Y-173130240D01*
X22902525Y-173304632D01*
X23109368Y-173511475D01*
X23352589Y-173673990D01*
X23622842Y-173785932D01*
X23909740Y-173843000D01*
X24202260Y-173843000D01*
X24489158Y-173785932D01*
X24759411Y-173673990D01*
X25002632Y-173511475D01*
X25209475Y-173304632D01*
X25326000Y-173130240D01*
X25442525Y-173304632D01*
X25649368Y-173511475D01*
X25892589Y-173673990D01*
X26162842Y-173785932D01*
X26449740Y-173843000D01*
X26742260Y-173843000D01*
X27029158Y-173785932D01*
X27299411Y-173673990D01*
X27542632Y-173511475D01*
X27749475Y-173304632D01*
X27866000Y-173130240D01*
X27982525Y-173304632D01*
X28189368Y-173511475D01*
X28432589Y-173673990D01*
X28702842Y-173785932D01*
X28989740Y-173843000D01*
X29282260Y-173843000D01*
X29569158Y-173785932D01*
X29839411Y-173673990D01*
X30082632Y-173511475D01*
X30289475Y-173304632D01*
X30406000Y-173130240D01*
X30522525Y-173304632D01*
X30729368Y-173511475D01*
X30972589Y-173673990D01*
X31242842Y-173785932D01*
X31529740Y-173843000D01*
X31822260Y-173843000D01*
X32109158Y-173785932D01*
X32379411Y-173673990D01*
X32622632Y-173511475D01*
X32829475Y-173304632D01*
X32946000Y-173130240D01*
X33062525Y-173304632D01*
X33269368Y-173511475D01*
X33512589Y-173673990D01*
X33782842Y-173785932D01*
X34069740Y-173843000D01*
X34362260Y-173843000D01*
X34649158Y-173785932D01*
X34919411Y-173673990D01*
X35162632Y-173511475D01*
X35369475Y-173304632D01*
X35486000Y-173130240D01*
X35602525Y-173304632D01*
X35809368Y-173511475D01*
X36052589Y-173673990D01*
X36322842Y-173785932D01*
X36609740Y-173843000D01*
X36902260Y-173843000D01*
X37189158Y-173785932D01*
X37459411Y-173673990D01*
X37702632Y-173511475D01*
X37834487Y-173379620D01*
X37856498Y-173452180D01*
X37915463Y-173562494D01*
X37994815Y-173659185D01*
X38091506Y-173738537D01*
X38201820Y-173797502D01*
X38321518Y-173833812D01*
X38446000Y-173846072D01*
X40146000Y-173846072D01*
X40270482Y-173833812D01*
X40390180Y-173797502D01*
X40500494Y-173738537D01*
X40597185Y-173659185D01*
X40676537Y-173562494D01*
X40735502Y-173452180D01*
X40771812Y-173332482D01*
X40784072Y-173208000D01*
X40784072Y-171508000D01*
X40771812Y-171383518D01*
X40768621Y-171373000D01*
X47067000Y-171373000D01*
X47067001Y-196165000D01*
X40774519Y-196165000D01*
X40784072Y-196068000D01*
X40784072Y-194368000D01*
X40771812Y-194243518D01*
X40735502Y-194123820D01*
X40676537Y-194013506D01*
X40597185Y-193916815D01*
X40500494Y-193837463D01*
X40390180Y-193778498D01*
X40270482Y-193742188D01*
X40146000Y-193729928D01*
X38446000Y-193729928D01*
X38321518Y-193742188D01*
X38201820Y-193778498D01*
X38091506Y-193837463D01*
X37994815Y-193916815D01*
X37915463Y-194013506D01*
X37856498Y-194123820D01*
X37834487Y-194196380D01*
X37702632Y-194064525D01*
X37459411Y-193902010D01*
X37189158Y-193790068D01*
X36902260Y-193733000D01*
X36609740Y-193733000D01*
X36322842Y-193790068D01*
X36052589Y-193902010D01*
X35809368Y-194064525D01*
X35602525Y-194271368D01*
X35486000Y-194445760D01*
X35369475Y-194271368D01*
X35162632Y-194064525D01*
X34919411Y-193902010D01*
X34649158Y-193790068D01*
X34362260Y-193733000D01*
X34069740Y-193733000D01*
X33782842Y-193790068D01*
X33512589Y-193902010D01*
X33269368Y-194064525D01*
X33062525Y-194271368D01*
X32946000Y-194445760D01*
X32829475Y-194271368D01*
X32622632Y-194064525D01*
X32379411Y-193902010D01*
X32109158Y-193790068D01*
X31822260Y-193733000D01*
X31529740Y-193733000D01*
X31242842Y-193790068D01*
X30972589Y-193902010D01*
X30729368Y-194064525D01*
X30522525Y-194271368D01*
X30406000Y-194445760D01*
X30289475Y-194271368D01*
X30082632Y-194064525D01*
X29839411Y-193902010D01*
X29569158Y-193790068D01*
X29282260Y-193733000D01*
X28989740Y-193733000D01*
X28702842Y-193790068D01*
X28432589Y-193902010D01*
X28189368Y-194064525D01*
X27982525Y-194271368D01*
X27866000Y-194445760D01*
X27749475Y-194271368D01*
X27542632Y-194064525D01*
X27299411Y-193902010D01*
X27029158Y-193790068D01*
X26742260Y-193733000D01*
X26449740Y-193733000D01*
X26162842Y-193790068D01*
X25892589Y-193902010D01*
X25649368Y-194064525D01*
X25442525Y-194271368D01*
X25320805Y-194453534D01*
X25251178Y-194336645D01*
X25056269Y-194120412D01*
X24822920Y-193946359D01*
X24560099Y-193821175D01*
X24412890Y-193776524D01*
X24183000Y-193897845D01*
X24183000Y-195091000D01*
X24203000Y-195091000D01*
X24203000Y-195345000D01*
X24183000Y-195345000D01*
X24183000Y-195365000D01*
X23929000Y-195365000D01*
X23929000Y-195345000D01*
X23909000Y-195345000D01*
X23909000Y-195091000D01*
X23929000Y-195091000D01*
X23929000Y-193897845D01*
X23699110Y-193776524D01*
X23551901Y-193821175D01*
X23289080Y-193946359D01*
X23055731Y-194120412D01*
X22860822Y-194336645D01*
X22791195Y-194453534D01*
X22669475Y-194271368D01*
X22462632Y-194064525D01*
X22219411Y-193902010D01*
X21949158Y-193790068D01*
X21662260Y-193733000D01*
X21369740Y-193733000D01*
X21082842Y-193790068D01*
X20812589Y-193902010D01*
X20569368Y-194064525D01*
X20362525Y-194271368D01*
X20200010Y-194514589D01*
X20088068Y-194784842D01*
X20031000Y-195071740D01*
X20031000Y-195364260D01*
X20088068Y-195651158D01*
X20200010Y-195921411D01*
X20362525Y-196164632D01*
X20362893Y-196165000D01*
X13639000Y-196165000D01*
X13639000Y-189224890D01*
X14232524Y-189224890D01*
X14277175Y-189372099D01*
X14402359Y-189634920D01*
X14576412Y-189868269D01*
X14792645Y-190063178D01*
X15042748Y-190212157D01*
X15317109Y-190309481D01*
X15547000Y-190188814D01*
X15547000Y-188995000D01*
X14353845Y-188995000D01*
X14232524Y-189224890D01*
X13639000Y-189224890D01*
X13639000Y-177858000D01*
X14185928Y-177858000D01*
X14185928Y-179558000D01*
X14198188Y-179682482D01*
X14234498Y-179802180D01*
X14293463Y-179912494D01*
X14372815Y-180009185D01*
X14469506Y-180088537D01*
X14579820Y-180147502D01*
X14652380Y-180169513D01*
X14520525Y-180301368D01*
X14358010Y-180544589D01*
X14246068Y-180814842D01*
X14189000Y-181101740D01*
X14189000Y-181394260D01*
X14246068Y-181681158D01*
X14358010Y-181951411D01*
X14520525Y-182194632D01*
X14727368Y-182401475D01*
X14901760Y-182518000D01*
X14727368Y-182634525D01*
X14520525Y-182841368D01*
X14358010Y-183084589D01*
X14246068Y-183354842D01*
X14189000Y-183641740D01*
X14189000Y-183934260D01*
X14246068Y-184221158D01*
X14358010Y-184491411D01*
X14520525Y-184734632D01*
X14727368Y-184941475D01*
X14901760Y-185058000D01*
X14727368Y-185174525D01*
X14520525Y-185381368D01*
X14358010Y-185624589D01*
X14246068Y-185894842D01*
X14189000Y-186181740D01*
X14189000Y-186474260D01*
X14246068Y-186761158D01*
X14358010Y-187031411D01*
X14520525Y-187274632D01*
X14727368Y-187481475D01*
X14909534Y-187603195D01*
X14792645Y-187672822D01*
X14576412Y-187867731D01*
X14402359Y-188101080D01*
X14277175Y-188363901D01*
X14232524Y-188511110D01*
X14353845Y-188741000D01*
X15547000Y-188741000D01*
X15547000Y-188721000D01*
X15801000Y-188721000D01*
X15801000Y-188741000D01*
X15821000Y-188741000D01*
X15821000Y-188995000D01*
X15801000Y-188995000D01*
X15801000Y-190188814D01*
X16030891Y-190309481D01*
X16305252Y-190212157D01*
X16555355Y-190063178D01*
X16771588Y-189868269D01*
X16942900Y-189638594D01*
X17060525Y-189814632D01*
X17267368Y-190021475D01*
X17510589Y-190183990D01*
X17780842Y-190295932D01*
X18067740Y-190353000D01*
X18360260Y-190353000D01*
X18647158Y-190295932D01*
X18917411Y-190183990D01*
X19160632Y-190021475D01*
X19367475Y-189814632D01*
X19529990Y-189571411D01*
X19641932Y-189301158D01*
X19699000Y-189014260D01*
X19699000Y-188721740D01*
X19641932Y-188434842D01*
X19529990Y-188164589D01*
X19367475Y-187921368D01*
X19160632Y-187714525D01*
X18986240Y-187598000D01*
X19160632Y-187481475D01*
X19367475Y-187274632D01*
X19529990Y-187031411D01*
X19641932Y-186761158D01*
X19699000Y-186474260D01*
X19699000Y-186181740D01*
X19641932Y-185894842D01*
X19529990Y-185624589D01*
X19367475Y-185381368D01*
X19160632Y-185174525D01*
X18986240Y-185058000D01*
X19160632Y-184941475D01*
X19367475Y-184734632D01*
X19529990Y-184491411D01*
X19641932Y-184221158D01*
X19699000Y-183934260D01*
X19699000Y-183641740D01*
X19641932Y-183354842D01*
X19529990Y-183084589D01*
X19367475Y-182841368D01*
X19160632Y-182634525D01*
X18986240Y-182518000D01*
X19160632Y-182401475D01*
X19367475Y-182194632D01*
X19529990Y-181951411D01*
X19641932Y-181681158D01*
X19699000Y-181394260D01*
X19699000Y-181101740D01*
X19641932Y-180814842D01*
X19529990Y-180544589D01*
X19367475Y-180301368D01*
X19160632Y-180094525D01*
X18986240Y-179978000D01*
X19160632Y-179861475D01*
X19367475Y-179654632D01*
X19529990Y-179411411D01*
X19641932Y-179141158D01*
X19699000Y-178854260D01*
X19699000Y-178561740D01*
X19641932Y-178274842D01*
X19529990Y-178004589D01*
X19367475Y-177761368D01*
X19160632Y-177554525D01*
X18917411Y-177392010D01*
X18647158Y-177280068D01*
X18360260Y-177223000D01*
X18067740Y-177223000D01*
X17780842Y-177280068D01*
X17510589Y-177392010D01*
X17267368Y-177554525D01*
X17135513Y-177686380D01*
X17113502Y-177613820D01*
X17054537Y-177503506D01*
X16975185Y-177406815D01*
X16878494Y-177327463D01*
X16768180Y-177268498D01*
X16648482Y-177232188D01*
X16524000Y-177219928D01*
X14824000Y-177219928D01*
X14699518Y-177232188D01*
X14579820Y-177268498D01*
X14469506Y-177327463D01*
X14372815Y-177406815D01*
X14293463Y-177503506D01*
X14234498Y-177613820D01*
X14198188Y-177733518D01*
X14185928Y-177858000D01*
X13639000Y-177858000D01*
X13639000Y-171373000D01*
X20400893Y-171373000D01*
X20362525Y-171411368D01*
%TA.AperFunction,Conductor*%
D13*
G36*
X20362525Y-171411368D02*
G01*
X20200010Y-171654589D01*
X20088068Y-171924842D01*
X20031000Y-172211740D01*
X20031000Y-172504260D01*
X20088068Y-172791158D01*
X20200010Y-173061411D01*
X20362525Y-173304632D01*
X20569368Y-173511475D01*
X20812589Y-173673990D01*
X21082842Y-173785932D01*
X21369740Y-173843000D01*
X21662260Y-173843000D01*
X21949158Y-173785932D01*
X22219411Y-173673990D01*
X22462632Y-173511475D01*
X22669475Y-173304632D01*
X22786000Y-173130240D01*
X22902525Y-173304632D01*
X23109368Y-173511475D01*
X23352589Y-173673990D01*
X23622842Y-173785932D01*
X23909740Y-173843000D01*
X24202260Y-173843000D01*
X24489158Y-173785932D01*
X24759411Y-173673990D01*
X25002632Y-173511475D01*
X25209475Y-173304632D01*
X25326000Y-173130240D01*
X25442525Y-173304632D01*
X25649368Y-173511475D01*
X25892589Y-173673990D01*
X26162842Y-173785932D01*
X26449740Y-173843000D01*
X26742260Y-173843000D01*
X27029158Y-173785932D01*
X27299411Y-173673990D01*
X27542632Y-173511475D01*
X27749475Y-173304632D01*
X27866000Y-173130240D01*
X27982525Y-173304632D01*
X28189368Y-173511475D01*
X28432589Y-173673990D01*
X28702842Y-173785932D01*
X28989740Y-173843000D01*
X29282260Y-173843000D01*
X29569158Y-173785932D01*
X29839411Y-173673990D01*
X30082632Y-173511475D01*
X30289475Y-173304632D01*
X30406000Y-173130240D01*
X30522525Y-173304632D01*
X30729368Y-173511475D01*
X30972589Y-173673990D01*
X31242842Y-173785932D01*
X31529740Y-173843000D01*
X31822260Y-173843000D01*
X32109158Y-173785932D01*
X32379411Y-173673990D01*
X32622632Y-173511475D01*
X32829475Y-173304632D01*
X32946000Y-173130240D01*
X33062525Y-173304632D01*
X33269368Y-173511475D01*
X33512589Y-173673990D01*
X33782842Y-173785932D01*
X34069740Y-173843000D01*
X34362260Y-173843000D01*
X34649158Y-173785932D01*
X34919411Y-173673990D01*
X35162632Y-173511475D01*
X35369475Y-173304632D01*
X35486000Y-173130240D01*
X35602525Y-173304632D01*
X35809368Y-173511475D01*
X36052589Y-173673990D01*
X36322842Y-173785932D01*
X36609740Y-173843000D01*
X36902260Y-173843000D01*
X37189158Y-173785932D01*
X37459411Y-173673990D01*
X37702632Y-173511475D01*
X37834487Y-173379620D01*
X37856498Y-173452180D01*
X37915463Y-173562494D01*
X37994815Y-173659185D01*
X38091506Y-173738537D01*
X38201820Y-173797502D01*
X38321518Y-173833812D01*
X38446000Y-173846072D01*
X40146000Y-173846072D01*
X40270482Y-173833812D01*
X40390180Y-173797502D01*
X40500494Y-173738537D01*
X40597185Y-173659185D01*
X40676537Y-173562494D01*
X40735502Y-173452180D01*
X40771812Y-173332482D01*
X40784072Y-173208000D01*
X40784072Y-171508000D01*
X40771812Y-171383518D01*
X40768621Y-171373000D01*
X47067000Y-171373000D01*
X47067001Y-196165000D01*
X40774519Y-196165000D01*
X40784072Y-196068000D01*
X40784072Y-194368000D01*
X40771812Y-194243518D01*
X40735502Y-194123820D01*
X40676537Y-194013506D01*
X40597185Y-193916815D01*
X40500494Y-193837463D01*
X40390180Y-193778498D01*
X40270482Y-193742188D01*
X40146000Y-193729928D01*
X38446000Y-193729928D01*
X38321518Y-193742188D01*
X38201820Y-193778498D01*
X38091506Y-193837463D01*
X37994815Y-193916815D01*
X37915463Y-194013506D01*
X37856498Y-194123820D01*
X37834487Y-194196380D01*
X37702632Y-194064525D01*
X37459411Y-193902010D01*
X37189158Y-193790068D01*
X36902260Y-193733000D01*
X36609740Y-193733000D01*
X36322842Y-193790068D01*
X36052589Y-193902010D01*
X35809368Y-194064525D01*
X35602525Y-194271368D01*
X35486000Y-194445760D01*
X35369475Y-194271368D01*
X35162632Y-194064525D01*
X34919411Y-193902010D01*
X34649158Y-193790068D01*
X34362260Y-193733000D01*
X34069740Y-193733000D01*
X33782842Y-193790068D01*
X33512589Y-193902010D01*
X33269368Y-194064525D01*
X33062525Y-194271368D01*
X32946000Y-194445760D01*
X32829475Y-194271368D01*
X32622632Y-194064525D01*
X32379411Y-193902010D01*
X32109158Y-193790068D01*
X31822260Y-193733000D01*
X31529740Y-193733000D01*
X31242842Y-193790068D01*
X30972589Y-193902010D01*
X30729368Y-194064525D01*
X30522525Y-194271368D01*
X30406000Y-194445760D01*
X30289475Y-194271368D01*
X30082632Y-194064525D01*
X29839411Y-193902010D01*
X29569158Y-193790068D01*
X29282260Y-193733000D01*
X28989740Y-193733000D01*
X28702842Y-193790068D01*
X28432589Y-193902010D01*
X28189368Y-194064525D01*
X27982525Y-194271368D01*
X27866000Y-194445760D01*
X27749475Y-194271368D01*
X27542632Y-194064525D01*
X27299411Y-193902010D01*
X27029158Y-193790068D01*
X26742260Y-193733000D01*
X26449740Y-193733000D01*
X26162842Y-193790068D01*
X25892589Y-193902010D01*
X25649368Y-194064525D01*
X25442525Y-194271368D01*
X25320805Y-194453534D01*
X25251178Y-194336645D01*
X25056269Y-194120412D01*
X24822920Y-193946359D01*
X24560099Y-193821175D01*
X24412890Y-193776524D01*
X24183000Y-193897845D01*
X24183000Y-195091000D01*
X24203000Y-195091000D01*
X24203000Y-195345000D01*
X24183000Y-195345000D01*
X24183000Y-195365000D01*
X23929000Y-195365000D01*
X23929000Y-195345000D01*
X23909000Y-195345000D01*
X23909000Y-195091000D01*
X23929000Y-195091000D01*
X23929000Y-193897845D01*
X23699110Y-193776524D01*
X23551901Y-193821175D01*
X23289080Y-193946359D01*
X23055731Y-194120412D01*
X22860822Y-194336645D01*
X22791195Y-194453534D01*
X22669475Y-194271368D01*
X22462632Y-194064525D01*
X22219411Y-193902010D01*
X21949158Y-193790068D01*
X21662260Y-193733000D01*
X21369740Y-193733000D01*
X21082842Y-193790068D01*
X20812589Y-193902010D01*
X20569368Y-194064525D01*
X20362525Y-194271368D01*
X20200010Y-194514589D01*
X20088068Y-194784842D01*
X20031000Y-195071740D01*
X20031000Y-195364260D01*
X20088068Y-195651158D01*
X20200010Y-195921411D01*
X20362525Y-196164632D01*
X20362893Y-196165000D01*
X13639000Y-196165000D01*
X13639000Y-189224890D01*
X14232524Y-189224890D01*
X14277175Y-189372099D01*
X14402359Y-189634920D01*
X14576412Y-189868269D01*
X14792645Y-190063178D01*
X15042748Y-190212157D01*
X15317109Y-190309481D01*
X15547000Y-190188814D01*
X15547000Y-188995000D01*
X14353845Y-188995000D01*
X14232524Y-189224890D01*
X13639000Y-189224890D01*
X13639000Y-177858000D01*
X14185928Y-177858000D01*
X14185928Y-179558000D01*
X14198188Y-179682482D01*
X14234498Y-179802180D01*
X14293463Y-179912494D01*
X14372815Y-180009185D01*
X14469506Y-180088537D01*
X14579820Y-180147502D01*
X14652380Y-180169513D01*
X14520525Y-180301368D01*
X14358010Y-180544589D01*
X14246068Y-180814842D01*
X14189000Y-181101740D01*
X14189000Y-181394260D01*
X14246068Y-181681158D01*
X14358010Y-181951411D01*
X14520525Y-182194632D01*
X14727368Y-182401475D01*
X14901760Y-182518000D01*
X14727368Y-182634525D01*
X14520525Y-182841368D01*
X14358010Y-183084589D01*
X14246068Y-183354842D01*
X14189000Y-183641740D01*
X14189000Y-183934260D01*
X14246068Y-184221158D01*
X14358010Y-184491411D01*
X14520525Y-184734632D01*
X14727368Y-184941475D01*
X14901760Y-185058000D01*
X14727368Y-185174525D01*
X14520525Y-185381368D01*
X14358010Y-185624589D01*
X14246068Y-185894842D01*
X14189000Y-186181740D01*
X14189000Y-186474260D01*
X14246068Y-186761158D01*
X14358010Y-187031411D01*
X14520525Y-187274632D01*
X14727368Y-187481475D01*
X14909534Y-187603195D01*
X14792645Y-187672822D01*
X14576412Y-187867731D01*
X14402359Y-188101080D01*
X14277175Y-188363901D01*
X14232524Y-188511110D01*
X14353845Y-188741000D01*
X15547000Y-188741000D01*
X15547000Y-188721000D01*
X15801000Y-188721000D01*
X15801000Y-188741000D01*
X15821000Y-188741000D01*
X15821000Y-188995000D01*
X15801000Y-188995000D01*
X15801000Y-190188814D01*
X16030891Y-190309481D01*
X16305252Y-190212157D01*
X16555355Y-190063178D01*
X16771588Y-189868269D01*
X16942900Y-189638594D01*
X17060525Y-189814632D01*
X17267368Y-190021475D01*
X17510589Y-190183990D01*
X17780842Y-190295932D01*
X18067740Y-190353000D01*
X18360260Y-190353000D01*
X18647158Y-190295932D01*
X18917411Y-190183990D01*
X19160632Y-190021475D01*
X19367475Y-189814632D01*
X19529990Y-189571411D01*
X19641932Y-189301158D01*
X19699000Y-189014260D01*
X19699000Y-188721740D01*
X19641932Y-188434842D01*
X19529990Y-188164589D01*
X19367475Y-187921368D01*
X19160632Y-187714525D01*
X18986240Y-187598000D01*
X19160632Y-187481475D01*
X19367475Y-187274632D01*
X19529990Y-187031411D01*
X19641932Y-186761158D01*
X19699000Y-186474260D01*
X19699000Y-186181740D01*
X19641932Y-185894842D01*
X19529990Y-185624589D01*
X19367475Y-185381368D01*
X19160632Y-185174525D01*
X18986240Y-185058000D01*
X19160632Y-184941475D01*
X19367475Y-184734632D01*
X19529990Y-184491411D01*
X19641932Y-184221158D01*
X19699000Y-183934260D01*
X19699000Y-183641740D01*
X19641932Y-183354842D01*
X19529990Y-183084589D01*
X19367475Y-182841368D01*
X19160632Y-182634525D01*
X18986240Y-182518000D01*
X19160632Y-182401475D01*
X19367475Y-182194632D01*
X19529990Y-181951411D01*
X19641932Y-181681158D01*
X19699000Y-181394260D01*
X19699000Y-181101740D01*
X19641932Y-180814842D01*
X19529990Y-180544589D01*
X19367475Y-180301368D01*
X19160632Y-180094525D01*
X18986240Y-179978000D01*
X19160632Y-179861475D01*
X19367475Y-179654632D01*
X19529990Y-179411411D01*
X19641932Y-179141158D01*
X19699000Y-178854260D01*
X19699000Y-178561740D01*
X19641932Y-178274842D01*
X19529990Y-178004589D01*
X19367475Y-177761368D01*
X19160632Y-177554525D01*
X18917411Y-177392010D01*
X18647158Y-177280068D01*
X18360260Y-177223000D01*
X18067740Y-177223000D01*
X17780842Y-177280068D01*
X17510589Y-177392010D01*
X17267368Y-177554525D01*
X17135513Y-177686380D01*
X17113502Y-177613820D01*
X17054537Y-177503506D01*
X16975185Y-177406815D01*
X16878494Y-177327463D01*
X16768180Y-177268498D01*
X16648482Y-177232188D01*
X16524000Y-177219928D01*
X14824000Y-177219928D01*
X14699518Y-177232188D01*
X14579820Y-177268498D01*
X14469506Y-177327463D01*
X14372815Y-177406815D01*
X14293463Y-177503506D01*
X14234498Y-177613820D01*
X14198188Y-177733518D01*
X14185928Y-177858000D01*
X13639000Y-177858000D01*
X13639000Y-171373000D01*
X20400893Y-171373000D01*
X20362525Y-171411368D01*
G37*
%TD.AperFunction*%
%TD*%
M02*
